<?xml version="1.0" standalone="no"?><!DOCTYPE svg PUBLIC "-//W3C//DTD SVG 1.1//EN" "http://www.w3.org/Graphics/SVG/1.1/DTD/svg11.dtd"><svg t="1765507049962" class="icon" viewBox="0 0 1024 1024" version="1.1" xmlns="http://www.w3.org/2000/svg" p-id="8697" xmlns:xlink="http://www.w3.org/1999/xlink" width="200" height="200"><path d="M512 512m-512 0a512 512 0 1 0 1024 0 512 512 0 1 0-1024 0Z" fill="#AFAFAF" p-id="8698"></path><path d="M713.130667 310.869333a35.555556 35.555556 0 0 1 0 50.289778L562.289778 512l150.840889 150.840889a35.555556 35.555556 0 0 1-50.289778 50.289778L512 562.289778l-150.840889 150.840889a35.555556 35.555556 0 0 1-50.289778-50.289778L461.738667 512l-150.869334-150.812444a35.555556 35.555556 0 0 1 50.289778-50.289778L512 461.710222l150.812444-150.840889a35.555556 35.555556 0 0 1 50.289778 0z" fill="#FFFFFF" p-id="8699"></path></svg>