<?xml version="1.0" standalone="no"?><!DOCTYPE svg PUBLIC "-//W3C//DTD SVG 1.1//EN" "http://www.w3.org/Graphics/SVG/1.1/DTD/svg11.dtd"><svg t="1768360202305" class="icon" viewBox="0 0 1024 1024" version="1.1" xmlns="http://www.w3.org/2000/svg" p-id="8453" xmlns:xlink="http://www.w3.org/1999/xlink" width="200" height="200"><path d="M113.004469 498.320427c-44.318615-77.341583-53.342333-149.499328-21.823318-203.993625 42.174682-73.149714 147.995375-98.652917 281.815193-74.333677 7.67976 1.151964 12.991594 8.511734 11.679635 16.159495a13.75957 13.75957 0 0 1-16.671479 10.847661c-123.676135-22.495297-218.009187 0.31999-252.984094 60.990094-25.823193 44.670604-18.175432 107.004656 21.823318 176.666479a13.791569 13.791569 0 0 1-4.831849 19.327396 13.695572 13.695572 0 0 1-19.007406-5.663823z m636.492109-258.999906c78.333552 0.991969 134.651792 25.343208 160.154995 69.341833 35.006906 60.510109 7.67976 153.339208-73.341708 248.98422a13.75957 13.75957 0 0 0 0.991969 19.999375c6.015812 5.151839 15.167526 4.15987 19.83938-2.175932 87.67726-103.484766 118.332302-207.67351 76.15762-280.503235-31.007031-53.662323-96.31699-82.013437-183.322271-83.165401a13.75957 13.75957 0 0 0-14.655542 13.663573 13.599575 13.599575 0 0 0 14.335552 13.823568z m-79.005531 650.155683a13.75957 13.75957 0 0 0-18.847411 4.671854c-39.838755 66.333927-88.829224 102.332802-139.163651 102.332802-70.013812 0-136.827724-70.173807-179.162401-188.506109a13.727571 13.727571 0 1 0-25.823193 9.343708C353.156964 945.154464 428.16262 1023.968001 512.479985 1023.968001c61.342083 0 118.172307-41.822693 162.650917-115.676385a13.823568 13.823568 0 0 0-4.671854-18.847411z m313.814193-110.652542c-0.159995 53.502328-60.510109 84.317365-103.99675 53.342333-104.668729 61.662073-304.822474 30.335052-493.136589-78.493547-80.157495-46.334552-150.491297-102.012812-204.665604-161.498953a13.855567 13.855567 0 0 1 0.671979-19.83938 13.695572 13.695572 0 0 1 19.679385 1.343958c52.15837 57.342208 120.156245 111.324521 197.977813 156.15512 177.818443 102.652792 364.980594 133.147839 460.657604 81.341458a65.693947 65.693947 0 0 1 40.31874-95.997 65.661948 65.661948 0 0 1 82.493422 63.67801z m-813.286584 0c0.159995 50.846411-55.166276 82.493422-99.004906 56.670229-43.83863-25.663198-43.006656-89.501203 1.503953-114.012437-10.015687-122.844161 119.004281-287.319021 314.006187-399.987501 80.989469-46.654542 165.338833-79.837505 244.504359-96.828974 16.991469-2.335927 22.175307 22.015312 5.823818 26.847161-76.317615 16.31949-158.011062 48.510484-236.664604 93.821068-183.482266 106.012687-304.822474 258.839911-300.662604 368.148496 1.663948-0.159995 3.167901-0.31999 4.831849-0.31999 36.318865 0 65.661948 29.503078 65.661948 65.661948z m275.83138-713.161714c3.007906-84.317365 128.31599-84.317365 131.323896 0 0 0.991969-0.159995 2.015937-0.159995 2.847911 108.828599 56.31824 184.31424 247.99225 184.31424 469.489329 0 91.165151-12.671604 178.490422-36.510859 254.328052-2.015937 7.487766-9.823693 11.999625-17.343458 9.663698s-11.487641-10.495672-8.831724-17.823443c22.847286-73.149714 35.166901-157.819068 35.166901-246.168307 0-208.665479-69.341833-387.987875-163.994875-442.162183-31.67901 61.150089-124.15612 38.654792-123.996125-30.175057z m55.646261 425.810693c-25.663198 5.663823-42.014687 30.847036-36.510859 56.510235s30.847036 42.014687 56.510234 36.510859c62.014062-13.343583 41.822693-106.332677-19.999375-92.989095z" p-id="8454" fill="#1296db"></path></svg>