<svg version="1.1" id="Capa_1" xmlns="http://www.w3.org/2000/svg" xmlns:xlink="http://www.w3.org/1999/xlink" x="0px"
     y="0px"
     width="47.77px" height="47.77px" viewBox="0 0 47.77 47.77" style="enable-background:new 0 0 47.77 47.77;"
     xml:space="preserve"
>
<g>
	<path d="M31.986,23.109c0.266,0.451,0.27,1.012,0.008,1.465l-3.387,5.94c-0.259,0.455-0.742,0.737-1.266,0.74l-6.84,0.036
		c-0.002,0-0.006,0-0.007,0c-0.521,0-1.002-0.277-1.266-0.727l-3.449-5.902c-0.266-0.451-0.268-1.01-0.009-1.465l3.386-5.942
		c0.26-0.455,0.743-0.737,1.266-0.74l6.84-0.037c0.003,0,0.006,0,0.009,0c0.521,0,1.002,0.277,1.266,0.726L31.986,23.109z
		 M47.77,23.885c0,13.171-10.715,23.885-23.885,23.885S0,37.055,0,23.885S10.715,0,23.885,0S47.77,10.715,47.77,23.885z
		 M34.77,33.617l3.387-5.94c0.261-0.456,0.742-0.737,1.267-0.74l2.733-0.016c0.353-2.11,0.324-4.222-0.037-6.27l-2.729,0.015
		c-0.002,0-0.006,0-0.008,0c-0.521,0-1.003-0.276-1.267-0.726l-3.451-5.905c-0.264-0.451-0.268-1.011-0.008-1.465l1.471-2.579
		c-1.499-1.324-3.192-2.392-5.036-3.167l-2.586,4.538c-0.261,0.455-0.742,0.737-1.269,0.74l-6.837,0.036c-0.003,0-0.005,0-0.008,0
		c-0.52,0-1.003-0.277-1.266-0.726l-2.641-4.518c-1.838,0.8-3.524,1.889-5.001,3.22l1.505,2.574
		c0.264,0.453,0.267,1.011,0.009,1.466l-3.387,5.94c-0.26,0.454-0.743,0.737-1.266,0.739l-2.736,0.016
		c-0.355,2.137-0.313,4.248,0.048,6.271l2.722-0.015c0.491-0.026,1.009,0.274,1.273,0.726l3.451,5.904
		c0.264,0.451,0.267,1.012,0.008,1.465l-1.464,2.569c1.476,1.306,3.165,2.386,5.031,3.175l2.584-4.535
		c0.26-0.455,0.743-0.735,1.266-0.738l6.838-0.037c0.002,0,0.006,0,0.008,0c0.521,0,1.004,0.275,1.268,0.727l2.641,4.518
		c1.838-0.801,3.523-1.889,5-3.221l-1.502-2.574C34.513,34.631,34.511,34.072,34.77,33.617z"/>
</g>
</svg>
