<svg width="78" height="88" viewBox="0 0 78 88" fill="none" xmlns="http://www.w3.org/2000/svg">
<path fill-rule="evenodd" clip-rule="evenodd" d="M77.3458 62.8097C77.3239 66.449 75.4335 67.2608 75.4335 67.2608C75.4335 67.2608 42.8124 86.1104 40.6915 87.2914C38.59 88.1934 37.1854 87.2914 37.1854 87.2914C37.1854 87.2914 3.05208 67.4953 1.80621 66.625C0.560031 65.7548 0.531147 64.3993 0.531147 64.3993C0.531147 64.3993 0.565437 25.1998 0.531147 23.3846C0.496857 21.5691 2.7622 20.2051 2.7622 20.2051L36.8666 0.492551C38.9662 -0.615689 41.0103 0.492551 41.0103 0.492551C41.0103 0.492551 71.1384 18.0048 74.4772 19.8871C77.7496 21.443 77.3458 24.6562 77.3458 24.6562C77.3458 24.6562 77.3661 59.4275 77.3458 62.8097ZM63.7293 23.4672C56.7462 19.448 40.296 9.9164 40.296 9.9164C40.296 9.9164 38.691 9.049 37.0426 9.9164L10.2663 25.3434C10.2663 25.3434 8.4877 26.4113 8.51469 27.8319C8.54167 29.2524 8.51469 59.9305 8.51469 59.9305C8.51469 59.9305 8.53723 60.9914 9.51576 61.6723C10.494 62.3532 37.2927 77.846 37.2927 77.846C37.2927 77.846 38.3957 78.5519 40.0454 77.846C41.7107 76.9217 67.3224 62.1698 67.3224 62.1698C67.3224 62.1698 68.8067 61.5344 68.8238 58.6862C68.8286 57.8649 68.8305 54.6768 68.8308 50.6712L38.677 68.9429V61.9528C38.677 59.0818 40.8995 57.1869 40.8995 57.1869L67.571 41.1152C68.5775 40.0641 68.7851 38.3805 68.828 37.7438C68.827 34.8241 68.8257 32.2737 68.8248 30.6581L38.677 48.9259V41.6181C38.677 38.7471 40.582 37.4877 40.582 37.4877L63.7293 23.4672Z" fill="#409EFF"/>
</svg>
