<?xml version="1.0" standalone="no"?><!DOCTYPE svg PUBLIC "-//W3C//DTD SVG 1.1//EN"
        "http://www.w3.org/Graphics/SVG/1.1/DTD/svg11.dtd">
<svg t="1772617657946" class="icon" viewBox="0 0 1024 1024" version="1.1" xmlns="http://www.w3.org/2000/svg" p-id="6058"
     xmlns:xlink="http://www.w3.org/1999/xlink" width="200" height="200">
    <path d="M77.575758 370.998303c0-108.140606 0-162.226424 21.038545-203.527758a193.070545 193.070545 0 0 1 84.402424-84.371393C224.256 62.060606 278.341818 62.060606 386.482424 62.060606h250.973091c108.140606 0 162.226424 0 203.527758 21.038546a193.070545 193.070545 0 0 1 84.371394 84.402424C946.424242 208.740848 946.424242 262.826667 946.424242 370.967273v250.973091c0 108.140606 0 162.226424-21.038545 203.527757a193.070545 193.070545 0 0 1-84.402424 84.371394C799.744 930.909091 745.658182 930.909091 637.517576 930.909091h-250.973091c-108.140606 0-162.226424 0-203.527758-21.038546a193.070545 193.070545 0 0 1-84.371394-84.402424C77.575758 784.228848 77.575758 730.14303 77.575758 622.002424v-250.973091z"
          fill="#FFFFFF00" p-id="6059"></path>
    <path d="M760.242424 397.560242v1.303273a298.325333 298.325333 0 0 1 0 3.630546c0 103.517091-80.678788 195.180606-134.640485 256.496484-15.639273 17.780364-29.075394 33.016242-37.608727 45.273213-30.409697 43.535515-46.452364 90.670545-50.672485 108.823272 0 13.653333-11.326061 24.731152-25.320727 24.731152a25.041455 25.041455 0 0 1-25.320727-24.731152c-4.220121-18.152727-20.262788-65.287758-50.672485-108.823272-8.533333-12.25697-21.969455-27.492848-37.608727-45.304243C344.405333 597.643636 263.757576 506.042182 263.757576 402.525091v-1.954909-2.978909C263.757576 263.664485 374.908121 155.151515 512 155.151515s248.242424 108.51297 248.242424 242.408727z m-248.242424 89.05697c53.154909 0 96.256-42.108121 96.256-94.021818 0-51.913697-43.101091-93.990788-96.256-93.990788-53.154909 0-96.256 42.077091-96.256 94.021818 0 51.882667 43.101091 93.959758 96.256 93.959758z"
          fill="#34A851" p-id="6060"></path>
    <path d="M732.470303 286.068364a247.559758 247.559758 0 0 0-147.549091-120.273455l-142.553212 161.947152A97.093818 97.093818 0 0 1 512 298.604606c53.154909 0 96.256 42.108121 96.256 94.021818a92.16 92.16 0 0 1-19.269818 56.413091l143.484121-162.971151z"
          fill="#4285F5" p-id="6061"></path>
    <path d="M401.252848 662.248727l-2.854787-3.258182c-35.591758-40.432485-82.757818-94.021818-110.778182-155.492848l148.169697-168.308364a92.16 92.16 0 0 0-20.045576 57.406061c0 51.913697 43.101091 94.021818 96.256 94.021818a97.124848 97.124848 0 0 0 68.732121-28.237576l-179.479273 203.869091z"
          fill="#F9BB0E" p-id="6062"></path>
    <path d="M322.497939 240.981333A238.095515 238.095515 0 0 0 263.757576 402.46303c0 35.281455 9.371152 69.197576 23.862303 100.972606l147.921454-167.99806-113.043394-94.487273z"
          fill="#E74335" p-id="6063"></path>
    <path d="M584.921212 165.794909A253.796848 253.796848 0 0 0 512 155.151515a250.166303 250.166303 0 0 0-189.502061 85.829818l113.043394 94.456243 0.248243-0.248243c2.048-2.606545 4.251152-5.12 6.578424-7.447272l142.553212-161.978182z"
          fill="#1A73E6" p-id="6064"></path>
</svg>
