<svg style="width: 52px; height: 52px;" width="52" height="52" viewBox="0 0 52 52" fill="none" xmlns="http://www.w3.org/2000/svg">
    <path d="M50.4858 26.5794C50.4858 24.7713 50.3322 23.0297 50.0395 21.3635H26V31.2158H39.7265C39.1354 34.4033 37.3475 37.1185 34.6381 38.9353V45.3451H42.8967C47.7156 40.9058 50.4858 34.3396 50.4858 26.5794Z" fill="#4285F4"></path>
    <path d="M34.6426 38.9352C32.3621 40.4652 29.4296 41.3577 26.0016 41.3577C19.3658 41.3577 13.7355 36.8807 11.7245 30.8477H3.21387V37.4516C7.40978 45.7854 16.0363 51.4998 26.0016 51.4998C32.8837 51.4998 38.6792 49.2395 42.9011 45.345L34.6426 38.9352Z" fill="#34A853"></path>
    <path d="M10.9318 25.9996C10.9318 24.3132 11.2129 22.6817 11.7229 21.1517V14.5449H3.21227C1.47943 17.9903 0.5 21.8791 0.5 25.9996C0.5 30.1202 1.47943 34.009 3.21227 37.4544L11.7229 30.8504C11.2129 29.3175 10.9318 27.6861 10.9318 25.9996Z" fill="#FBBC05"></path>
    <path d="M26.0016 10.642C29.7484 10.642 33.1068 11.9315 35.7553 14.4555L43.0634 7.14739C38.6444 3.02682 32.8808 0.5 26.0016 0.5C16.0363 0.5 7.40978 6.21432 3.21387 14.5453L11.7245 21.1492C13.7355 15.119 19.3658 10.642 26.0016 10.642Z" fill="#EA4335"></path>
</svg>
