<?xml version="1.0" standalone="no"?><!DOCTYPE svg PUBLIC "-//W3C//DTD SVG 1.1//EN" "http://www.w3.org/Graphics/SVG/1.1/DTD/svg11.dtd"><svg t="1772617579810" class="icon" viewBox="0 0 1024 1024" version="1.1" xmlns="http://www.w3.org/2000/svg" p-id="4891" xmlns:xlink="http://www.w3.org/1999/xlink" width="200" height="200"><path d="M358.22 23.99C420.57 4.1 486.78-3.21 551.98 1.93c77.34 5.77 153.2 29.85 219.98 69.24 64.07 37.74 119.74 89.64 161.79 150.96 31.62 45.72 55.46 96.75 70.63 150.22-2.84 0.79-5.7 1.46-8.51 2.33-0.25 0.06-0.76 0.18-1.01 0.25-1.39-0.15-2.91-0.08-3.9 1l-0.77 0.59c-1.31-1.04-3.08-0.55-4.22 0.43l-0.9 0.41-3.1 0.08c-0.49 0.27-1.45 0.81-1.93 1.08-1.62-1.02-3.53-0.56-5 0.41-0.4 0.12-1.2 0.36-1.61 0.48-7.33-0.01-14.66-0.29-21.98-0.01-0.4-0.14-1.2-0.42-1.61-0.56-1.84-0.95-3.98-1.12-5.88-0.27l-0.91-0.63c-1.05-0.98-2.62-1.38-3.92-0.73-4.01-2.26-8.6-3.63-13.15-4.24-0.64-1.72-2.62-1.88-4.17-1.67l-1.35-0.77c-0.14-0.07-0.43-0.22-0.57-0.3l-0.94-0.5c-0.15-0.08-0.45-0.23-0.6-0.31-0.43-0.23-1.28-0.69-1.71-0.92l-0.23-0.12c-0.42-0.26-1.24-0.78-1.66-1.04l-0.26-0.17c-7.43-5.08-15.07-9.91-21.72-16.03-6.14-4.79-11.12-10.84-17.11-15.8v-0.01c-12.82-14.29-24.65-29.46-35.86-45.05-1.79-2.73-3.79-5.33-6.05-7.69-0.07-0.09-0.22-0.27-0.29-0.36l-1.76-2.56c-0.07-0.11-0.23-0.34-0.3-0.45-0.41-0.64-1.24-1.91-1.65-2.55-0.08-0.13-0.22-0.4-0.29-0.53-7.08-12.49-15.72-24.04-23.73-35.96-18.88-26.16-38.45-51.91-60.32-75.66-10.59-12-22.21-23.03-33.48-34.38-24.42-23.32-51.25-44.16-79.92-62.01-5.61-3.05-10.74-7.13-16.85-9.17-0.54-0.21-1.63-0.63-2.18-0.83-2.91-3.15-7.25-4.28-10.88-6.35-25.91-13.42-53.71-22.93-82.1-29.52-5.28-1-10.54-2.33-15.95-2.35-1.2-0.91-2.73-1.1-4.12-0.6-0.49-0.19-1.45-0.58-1.94-0.77-1.57-0.79-3.4-0.6-5-0.03-3.64-2.21-8.01-1.53-12.05-2-1.95-0.5-3.96-0.54-5.92-0.1-1.54-0.28-3.07-0.59-4.61-0.74-11.92-0.87-23.92-0.56-35.85-0.04-1.41 0.14-2.79 0.48-4.15 0.79-4.28-0.16-8.59-0.51-12.83 0.26-1.06 0.17-2.1 0.45-3.13 0.7-2.95-0.24-5.88-0.11-8.78 0.42-14.71 0.89-29.24 3.87-43.62 7-1.43 0.41-2.7 0.14-3.83-0.81z" fill="#F5F5F5" p-id="4892"></path><path d="M430.41 16.42c1.36-0.31 2.74-0.65 4.15-0.79 6.74 1.37 13.65 0.3 20.47 0.64 5.13 0.01 10.3 0.35 15.38-0.6 1.54 0.15 3.07 0.46 4.61 0.74 1.7 1.4 4.26 1.84 5.92 0.1 4.04 0.47 8.41-0.21 12.05 2 1.47 1.08 3.65 1.64 5 0.03 0.49 0.19 1.45 0.58 1.94 0.77 0.91 1.52 2.75 1.51 4.12 0.6 5.41 0.02 10.67 1.35 15.95 2.35 28.39 6.59 56.19 16.1 82.1 29.52 3.63 2.07 7.97 3.2 10.88 6.35 0.55 0.2 1.64 0.62 2.18 0.83 6.11 2.04 11.24 6.12 16.85 9.17 28.67 17.85 55.5 38.69 79.92 62.01 11.27 11.35 22.89 22.38 33.48 34.38 21.87 23.75 41.44 49.5 60.32 75.66 8.01 11.92 16.65 23.47 23.73 35.96 0.07 0.13 0.21 0.4 0.29 0.53 0.41 0.64 1.24 1.91 1.65 2.55 0.07 0.11 0.23 0.34 0.3 0.45l1.76 2.56c0.07 0.09 0.22 0.27 0.29 0.36 2.26 2.36 4.26 4.96 6.05 7.69 11.21 15.59 23.04 30.76 35.86 45.05v0.01c5.99 4.96 10.97 11.01 17.11 15.8 6.65 6.12 14.29 10.95 21.72 16.03 0.06 0.1 0.19 0.29 0.25 0.38l0.01-0.21c0.42 0.26 1.24 0.78 1.66 1.04 0.07 0.06 0.22 0.17 0.3 0.23l-0.07-0.11c0.43 0.23 1.28 0.69 1.71 0.92 0.15 0.08 0.45 0.23 0.6 0.31l0.94 0.5c0.14 0.08 0.43 0.23 0.57 0.3l1.35 0.77c0.77 1.6 2.48 2.26 4.17 1.67 4.55 0.61 9.14 1.98 13.15 4.24 0.82 1.34 2.63 1.73 3.92 0.73l0.91 0.63c1.64 1.48 4.01 1.14 5.88 0.27 0.41 0.14 1.21 0.42 1.61 0.56 3.36 1.41 7.04 0.8 10.58 0.83 3.8-0.1 7.74 0.54 11.4-0.82 0.41-0.12 1.21-0.36 1.61-0.48 1.62 0.77 3.58 0.89 5-0.41 0.48-0.27 1.44-0.81 1.93-1.08 0.38 1.61 2.43 0.96 3.1-0.08l0.9-0.41c1.37 0.54 3.1 0.8 4.22-0.43l0.77-0.59c1.32 1.03 3.25 0.58 3.9-1 0.25-0.07 0.76-0.19 1.01-0.25 3.04 0.14 5.8-1 8.51-2.26 10.04 34.69 16.02 70.53 18.35 106.55 0.23 3.76 0.79 7.57 0.25 11.32-2.91 0.32-3.81 3.87-6.12 5.36-3.87 3.15-7.05 7.04-11.02 10.07-20.76 16.79-45.92 28.41-72.48 31.88-4.82 1.22-9.82 0.21-14.63 1.2-5.18 1.83-10.38-1.19-15.66-0.45-24.26-1.86-47.68-10.02-69.05-21.42-23.54-12.38-44.26-29.34-63.72-47.29-36.94-35.84-67.87-77.44-94.99-121.07-8.59-13.59-17.53-26.95-26.69-40.15-18.32-26.89-38.65-52.41-60.41-76.58-23.43-25.92-49.01-50.03-77.14-70.83-11.34-8.61-23.28-16.37-35.62-23.47-14-9.05-29.22-15.97-44.55-22.41-26.48-10.47-54.38-17.7-82.84-19.72-4.99-0.8-10.04-0.85-15.08-0.72-8.1 0.25-16.27-0.69-24.29 0.75-11.34 0.55-22.65 2.05-33.72 4.58-34.52 7.01-67.39 21-97.18 39.68-15.03 8.51-28.32 19.59-41.89 30.18-3.04 2.31-5.46 5.35-8.6 7.54-0.55 0-1.66-0.01-2.21-0.02 19.26-23.1 41.31-43.73 64.5-62.85 38.86-31.34 82.21-57.18 128.43-76.09 13.31-5.07 26.6-10.22 40.2-14.47 1.13 0.95 2.4 1.22 3.83 0.81 14.38-3.13 28.91-6.11 43.62-7 2.93 0.57 5.96 0.77 8.78-0.42 1.03-0.25 2.07-0.53 3.13-0.7 4.24 0.77 8.66 1.15 12.83-0.26z" fill="#C7E2FF" p-id="4893"></path><path d="M434.56 15.63c11.93-0.52 23.93-0.83 35.85 0.04-5.08 0.95-10.25 0.61-15.38 0.6-6.82-0.34-13.73 0.73-20.47-0.64z m-16.98 1.05c4.24-0.77 8.55-0.42 12.83-0.26-4.17 1.41-8.59 1.03-12.83 0.26z m57.44-0.27c1.96-0.44 3.97-0.4 5.92 0.1-1.66 1.74-4.22 1.3-5.92-0.1z m-69.35 1.39c2.9-0.53 5.83-0.66 8.78-0.42-2.82 1.19-5.85 0.99-8.78 0.42z m87.32 0.71c1.6-0.57 3.43-0.76 5 0.03-1.35 1.61-3.53 1.05-5-0.03z m6.94 0.8c1.39-0.5 2.92-0.31 4.12 0.6-1.37 0.91-3.21 0.92-4.12-0.6z m113.05 38.82zM308.69 95.44c8.02-1.44 16.19-0.5 24.29-0.75 5.04-0.13 10.09-0.08 15.08 0.72 28.46 2.02 56.36 9.25 82.84 19.72 15.33 6.44 30.55 13.36 44.55 22.41 12.34 7.1 24.28 14.86 35.62 23.47 28.13 20.8 53.71 44.91 77.14 70.83 21.76 24.17 42.09 49.69 60.41 76.58 9.16 13.2 18.1 26.56 26.69 40.15 27.12 43.63 58.05 85.23 94.99 121.07 19.46 17.95 40.18 34.91 63.72 47.29 21.37 11.4 44.79 19.56 69.05 21.42 5.28-0.74 10.48 2.28 15.66 0.45 4.81-0.99 9.81 0.02 14.63-1.2 26.56-3.47 51.72-15.09 72.48-31.88 3.97-3.03 7.15-6.92 11.02-10.07 2.08-1.87 3.98-3.96 6.47-5.31 0.55 29.2 0.3 58.52-3.83 87.48-0.59 6.05-1.95 11.98-2.67 18.02-0.43-0.22-1.28-0.65-1.71-0.87-0.03 1.29-0.04 2.59-0.03 3.89-0.23 0.56-0.71 1.68-0.95 2.23l0.11 0.87c-0.28 0.54-0.83 1.63-1.11 2.17l0.11 0.86c-0.29 0.53-0.88 1.59-1.18 2.12-3.25 6.53-5.5 13.53-8.98 19.97-10.32 20.29-24.53 38.48-41.14 54-11.19 10.83-24.43 19.26-37.9 26.96-13.34 7.47-27.81 12.78-42.54 16.79-10.85 3.45-22.2 5.5-33.59 5.77-2.33 0.16-4.55 1.11-6.88 1.18-10.71 0.06-21.41 0.23-32.11-0.07-5.53-1.62-11.33-0.76-16.91-2.06-15.02-1.8-29.5-6.22-43.92-10.6-17.75-6.13-35.07-13.57-51.51-22.65-1.98-1.08-4.06-1.96-6.07-2.93a0.144 0.144 0 0 0-0.03-0.02c-4.08-3-8.53-5.4-12.84-8.01-18.6-12.08-36.53-25.25-53.07-40.04-9.88-8.38-18.72-17.87-28.06-26.82-23.45-23.85-44.63-49.89-63.97-77.16-10.75-14.75-20.43-30.22-30.71-45.29-7.55-11.06-14.66-22.44-23.18-32.8-34.21-45.79-73.76-88.16-120.67-121.17-9.01-5.73-17.58-12.34-27.38-16.71-0.01-0.01-0.02-0.01-0.03-0.02-7.93-5.42-16.83-9.14-25.35-13.5-31.72-14.19-66.46-22.37-101.3-21.43-28.5 1.02-56.78 8.35-82.12 21.46-6.15 3.63-12.61 6.82-18.21 11.32-0.09 0.06-0.27 0.19-0.36 0.26l-2.6 1.8c-0.12 0.07-0.34 0.22-0.45 0.29-0.65 0.43-1.94 1.28-2.59 1.7l-0.36 0.24c-14.43 9.74-27.15 21.94-38.19 35.37-2.01 2.27-3.84 4.7-5.46 7.27-0.08 0.11-0.25 0.33-0.33 0.44-18.68 22.42-31.72 49.07-40.85 76.67-0.76 2.12-1.21 4.34-1.44 6.58-0.25 0.52-0.76 1.56-1.02 2.08-0.54 1.62-1.14 3.28-0.86 5.03-1.21 0.61-1.55 1.63-1.04 3.06l0.12 0.86c-1.13 0.72-1.51 1.76-1.14 3.1-1.52 3.44-2.18 7.14-2.63 10.84-0.1 0.76-0.29 2.28-0.39 3.04-2.17 5.37-1.27 11.38-3.25 16.81-0.19-16.65 1.47-33.25 3.4-49.77 12.15-99.81 54.81-195.67 120.78-271.55h0.15c0.55 0.01 1.66 0.02 2.21 0.02 3.14-2.19 5.56-5.23 8.6-7.54 13.57-10.59 26.86-21.67 41.89-30.18 29.79-18.68 62.66-32.67 97.18-39.68 11.07-2.53 22.38-4.03 33.72-4.58z m520.77 180.7c0.07 0.13 0.21 0.4 0.29 0.53-0.08-0.13-0.22-0.4-0.29-0.53z m1.94 3.08c0.07 0.11 0.23 0.34 0.3 0.45-0.07-0.11-0.23-0.34-0.3-0.45z m2.06 3.01c0.07 0.09 0.22 0.27 0.29 0.36-0.07-0.09-0.22-0.27-0.29-0.36z m42.2 53.1z m38.83 31.84l0.26 0.17-0.01 0.21c-0.06-0.09-0.19-0.28-0.25-0.38z m1.92 1.21l0.23 0.12 0.07 0.11c-0.08-0.06-0.23-0.17-0.3-0.23z m1.94 1.04c0.15 0.08 0.45 0.23 0.6 0.31-0.15-0.08-0.45-0.23-0.6-0.31z m1.54 0.81z m1.92 1.07c1.55-0.21 3.53-0.05 4.17 1.67-1.69 0.59-3.4-0.07-4.17-1.67z m69.15 4.63c0.99-1.08 2.51-1.15 3.9-1-0.65 1.58-2.58 2.03-3.9 1z m-4.99 1.02c1.14-0.98 2.91-1.47 4.22-0.43-1.12 1.23-2.85 0.97-4.22 0.43z m-46.84 0.26c1.3-0.65 2.87-0.25 3.92 0.73-1.29 1-3.1 0.61-3.92-0.73z m42.84 0.23l3.1-0.08c-0.67 1.04-2.72 1.69-3.1 0.08z m-38.01 1.13c1.9-0.85 4.04-0.68 5.88 0.27-1.87 0.87-4.24 1.21-5.88-0.27z m31.08 0.36c1.47-0.97 3.38-1.43 5-0.41-1.42 1.3-3.38 1.18-5 0.41z m-23.59 0.47c7.32-0.28 14.65 0 21.98 0.01-3.66 1.36-7.6 0.72-11.4 0.82-3.54-0.03-7.22 0.58-10.58-0.83z" fill="#96C2FF" p-id="4894"></path><path d="M121.81 311.96c25.34-13.11 53.62-20.44 82.12-21.46 34.84-0.94 69.58 7.24 101.3 21.43 8.52 4.36 17.42 8.08 25.35 13.5l0.01 0.02h0.02c9.8 4.37 18.37 10.98 27.38 16.71 46.91 33.01 86.46 75.38 120.67 121.17 8.52 10.36 15.63 21.74 23.18 32.8 10.28 15.07 19.96 30.54 30.71 45.29 19.34 27.27 40.52 53.31 63.97 77.16 9.34 8.95 18.18 18.44 28.06 26.82 16.54 14.79 34.47 27.96 53.07 40.04 4.31 2.61 8.76 5.01 12.84 8.01l0.02 0.01 0.01 0.01c2.01 0.97 4.09 1.85 6.07 2.93 16.44 9.08 33.76 16.52 51.51 22.65 14.42 4.38 28.9 8.8 43.92 10.6 5.58 1.3 11.38 0.44 16.91 2.06 10.7 0.3 21.4 0.13 32.11 0.07 2.33-0.07 4.55-1.02 6.88-1.18 11.39-0.27 22.74-2.32 33.59-5.77 14.73-4.01 29.2-9.32 42.54-16.79 13.47-7.7 26.71-16.13 37.9-26.96 16.61-15.52 30.82-33.71 41.14-54 3.48-6.44 5.73-13.44 8.98-19.97 0.3-0.53 0.89-1.59 1.18-2.12l-0.11-0.86c0.28-0.54 0.83-1.63 1.11-2.17l-0.11-0.87c0.24-0.55 0.72-1.67 0.95-2.23-0.01-1.3 0-2.6 0.03-3.89 0.43 0.22 1.28 0.65 1.71 0.87-7.64 48.19-23.13 94.98-44.09 138.99-9.86 20.54-21.26 40.33-33.88 59.3l-0.45 0.23c-2.23 0.96-4.12 2.5-5.7 4.31-11.91 12.8-24.79 24.67-38.43 35.6-17.19 13.19-34.92 25.91-54.38 35.58-18.75 10.18-38.71 18.04-59.24 23.78-8.75 2.76-17.73 4.65-26.74 6.26-7.46 2.08-15.21 2.51-22.84 3.56-4.34 0.55-8.74-0.37-13.04 0.6-5.61 1.13-11.34 0.4-17 0.66-5.06 0.26-9.97-1.59-15.03-1.08-3.75 0.54-7.25-1.16-10.95-1.2-4.25 0.07-8.28-1.56-12.51-1.75-28.58-4.25-56.31-13.09-82.8-24.52-27.71-12.19-53.54-28.26-78.16-45.79-13.66-10.24-27.19-20.68-39.83-32.17-11.3-10.33-22.76-20.51-33.48-31.46-22.21-22.88-43.41-46.78-63.09-71.88-9.77-12.87-19.77-25.56-29.76-38.26-24.84-30.21-53.62-57.82-87.77-77.3-16.6-9.59-34.52-17.23-53.42-20.78-9.64-1.83-19.43-3.21-29.26-2.65-13.02-0.78-25.96 1.89-38.34 5.74-27.29 8.81-50.26 28.84-64.83 53.3-9.24 15.29-14.06 32.69-17.88 49.99-1.63 12.3-1.44 24.74-1.19 37.12 1.01 5.34 0.95 10.78 1.06 16.2C16.16 656.34 1.52 588.74 0.5 521c-0.26-7.42-0.4-14.92 0.26-22.28 1.98-5.43 1.08-11.44 3.25-16.81 1.7-0.19 1.87-2.38 0.39-3.04 0.45-3.7 1.11-7.4 2.63-10.84 1.29-0.67 1.67-1.7 1.14-3.1l-0.12-0.86c1.18-0.71 1.53-1.73 1.04-3.06-0.28-1.75 0.32-3.41 0.86-5.03l0.91-0.2c0.02-0.47 0.08-1.41 0.11-1.88 0.23-2.24 0.68-4.46 1.44-6.58 9.13-27.6 22.17-54.25 40.85-76.67l0.17-0.21 0.16-0.23c1.62-2.57 3.45-5 5.46-7.27 11.04-13.43 23.76-25.63 38.19-35.37l0.36-0.24c0.65-0.42 1.94-1.27 2.59-1.7l0.23-0.15 0.22-0.14 2.6-1.8c0.09-0.07 0.27-0.2 0.36-0.26 5.6-4.5 12.06-7.69 18.21-11.32z" fill="#4A8AF5" p-id="4895"></path><path d="M103.24 323.54z m-3.05 2.09c0.11-0.07 0.33-0.22 0.45-0.29l-0.22 0.14-0.23 0.15z m230.39-0.2c0.01 0.01 0.02 0.01 0.03 0.02h-0.02l-0.01-0.02z m-233.34 2.14l0.36-0.24-0.36 0.24z m-43.98 43.08c0.08-0.11 0.25-0.33 0.33-0.44l-0.16 0.23-0.17 0.21zM9.95 455.98c0.26-0.52 0.77-1.56 1.02-2.08-0.03 0.47-0.09 1.41-0.11 1.88l-0.91 0.2z m-1.9 8.09c-0.51-1.43-0.17-2.45 1.04-3.06 0.49 1.33 0.14 2.35-1.04 3.06z m-1.02 3.96c-0.37-1.34 0.01-2.38 1.14-3.1 0.53 1.4 0.15 2.43-1.14 3.1zM4.4 478.87c1.48 0.66 1.31 2.85-0.39 3.04 0.1-0.76 0.29-2.28 0.39-3.04z m122.24 82.74c12.38-3.85 25.32-6.52 38.34-5.74 9.83-0.56 19.62 0.82 29.26 2.65 18.9 3.55 36.82 11.19 53.42 20.78 34.15 19.48 62.93 47.09 87.77 77.3 9.99 12.7 19.99 25.39 29.76 38.26 19.68 25.1 40.88 49 63.09 71.88 10.72 10.95 22.18 21.13 33.48 31.46 12.64 11.49 26.17 21.93 39.83 32.17 24.62 17.53 50.45 33.6 78.16 45.79 26.49 11.43 54.22 20.27 82.8 24.52 4.23 0.19 8.26 1.82 12.51 1.75 3.7 0.04 7.2 1.74 10.95 1.2 5.06-0.51 9.97 1.34 15.03 1.08 5.66-0.26 11.39 0.47 17-0.66 4.3-0.97 8.7-0.05 13.04-0.6 7.63-1.05 15.38-1.48 22.84-3.56 9.01-1.61 17.99-3.5 26.74-6.26 20.53-5.74 40.49-13.6 59.24-23.78 19.46-9.67 37.19-22.39 54.38-35.58 13.64-10.93 26.52-22.8 38.43-35.6 1.58-1.81 3.47-3.35 5.7-4.31-10.48 17.04-22.88 32.87-35.79 48.14-24.55 29.12-52.54 55.26-82.81 78.34-30.19 22.32-62.47 41.95-96.82 57.19-20.73 9.58-42.25 17.37-64.05 24.13-48.84 14.72-99.95 21.59-150.92 21.42-53.47-0.57-107.01-8.91-157.67-26.18-61.2-20.37-118.49-52.44-167.8-94.04-30.51-25.72-58.02-54.97-81.89-86.94-22.35-30.6-41.79-63.41-56.86-98.2-0.11-5.42-0.05-10.86-1.06-16.2-0.25-12.38-0.44-24.82 1.19-37.12 3.82-17.3 8.64-34.7 17.88-49.99 14.57-24.46 37.54-44.49 64.83-53.3z m887.5 39.48z m-1 3.04c0.28-0.54 0.83-1.63 1.11-2.17-0.28 0.54-0.83 1.63-1.11 2.17z m-1.07 2.98z m-321.58 86.34s0.02 0.01 0.03 0.02l-0.01-0.01-0.02-0.01z" fill="#2B64DC" p-id="4896"></path></svg>