<?xml version="1.0" standalone="no"?><!DOCTYPE svg PUBLIC "-//W3C//DTD SVG 1.1//EN" "http://www.w3.org/Graphics/SVG/1.1/DTD/svg11.dtd"><svg t="1769131669983" class="icon" viewBox="0 0 1024 1024" version="1.1" xmlns="http://www.w3.org/2000/svg" p-id="6704" xmlns:xlink="http://www.w3.org/1999/xlink" width="200" height="200"><path d="M878.776 287.99C786.555 108.943 568.546 43.96 390.943 102.4 160.625 178.176 81.55 414.433 113.233 554.516c38.985 0 78.951-2.18 118.55 0.646 37.334 2.662 62.402-11.305 83.947-40.899 33.608-46.141 72.325-88.637 104.93-135.434 46.93-67.42 105-104.325 190.688-91.73 35.81 5.273 73.032 0.89 109.62 0.901l157.808-0.01zM155.945 693.043C211.2 839.25 388.864 932.035 572.047 914.391c139.633-13.435 299.316-124.334 314.85-222.802H608.04c3-9.195 3.359-14.029 5.806-17.305 42.496-56.71 82.883-115.293 129.26-168.664 15.759-18.145 45.865-28.907 71.004-32.696 36.935-5.56 75.274-1.73 113.008-2.222 2.98-0.04 5.94-2.447 10.824-4.587l-3.154-31.57c-40.786 0-79.513 0.737-118.18-0.185-52.316-1.26-92.242 19.098-122.306 62.29-33.321 47.831-68.875 94.096-103.342 141.107-26.952 36.772-62.976 55.133-108.708 54.63-17.142-0.204-34.304 0.615-51.466 0.615-90.993 0.062-181.986 0.041-274.842 0.041z m-33.341-87.49c-1.833 29.778 11.356 34.857 33.392 34.508 70.84-1.116 141.752-1.873 212.572 0 46.51 1.219 81.255-15.943 108.81-52.643 34.305-45.67 71.547-89.14 104.889-135.465 37.785-52.511 84.644-78.685 151.5-73.82 61.82 4.495 124.202 0.962 186.297 0.962-0.748-27.34-12.063-34.98-35.082-34.406-62.843 1.474-125.952 3.89-188.529-0.256-60.221-3.984-103.997 20.49-139.479 64.594-34.376 42.67-68.116 85.964-99.973 130.529-32.645 45.64-74.875 67.594-131.174 66.345-67.318-1.485-134.677-0.348-203.223-0.348z m649.512 32.798c47.709 0 88.341-0.03 128.963 0.01 22.989 0.031 23.767-14.151 22.487-36.249-49.316 16.527-106.23-21.494-151.45 36.24z m165.438-118.579c-56.218-7.833-73.759-2.273-91.71 28.027 89.099 6.984 89.99 6.738 91.71-28.027z" fill="#be0000" p-id="6705"></path><path d="M878.776 287.99H720.968c-36.588-0.01-73.81 4.362-109.62-0.901-85.688-12.585-143.759 24.32-190.689 91.73-32.604 46.796-71.321 89.292-104.93 135.434-21.544 29.593-46.612 43.56-83.947 40.898-39.598-2.816-79.564-0.645-118.548-0.645-31.693-140.073 47.39-376.34 277.709-452.106 177.602-58.44 395.612 6.543 487.833 185.59zM155.945 693.043c92.846 0 183.849 0.02 274.831-0.03 17.163 0 34.325-0.81 51.467-0.615 45.731 0.502 81.756-17.858 108.707-54.63 34.468-47.012 70.022-93.276 103.342-141.108 30.075-43.202 69.99-63.549 122.307-62.29 38.666 0.922 77.394 0.185 118.18 0.185l3.154 31.57c-4.885 2.13-7.844 4.536-10.824 4.587-37.745 0.492-76.073-3.338-113.009 2.222-25.128 3.79-55.244 14.551-71.004 32.697-46.377 53.37-86.763 111.954-129.26 168.663-2.447 3.277-2.805 8.11-5.805 17.305h278.855c-15.523 98.458-175.206 209.357-314.839 222.792-183.183 17.644-360.837-75.141-416.102-221.348z" fill="#be0000" p-id="6706"></path><path d="M122.604 605.553c68.546 0 135.905-1.127 203.233 0.348 56.31 1.25 98.54-20.695 131.174-66.345 31.847-44.565 65.587-87.86 99.973-130.53 35.482-44.103 79.258-68.577 139.48-64.593 62.576 4.147 125.685 1.73 188.528 0.256 23.02-0.564 34.335 7.065 35.082 34.406-62.095 0-124.477 3.533-186.296-0.963-66.857-4.864-113.705 21.31-151.5 73.82-33.342 46.326-70.595 89.795-104.89 135.466-27.565 36.7-62.3 53.862-108.81 52.643-70.82-1.873-141.731-1.116-212.572 0-22.046 0.349-35.246-4.73-33.402-34.508z m649.512 32.798c45.22-57.733 102.134-19.712 151.45-36.239 1.28 22.098 0.502 36.28-22.487 36.25-40.622-0.041-81.244-0.01-128.963-0.01z m165.438-118.579c-1.72 34.775-2.611 35.01-91.71 28.027 17.941-30.3 35.482-35.86 91.71-28.027z" fill="#be0000" p-id="6707"></path></svg>