<?xml version="1.0" standalone="no"?><!DOCTYPE svg PUBLIC "-//W3C//DTD SVG 1.1//EN"
        "http://www.w3.org/Graphics/SVG/1.1/DTD/svg11.dtd">
<svg t="1764912707121" class="icon" viewBox="0 0 1024 1024" version="1.1" xmlns="http://www.w3.org/2000/svg" p-id="9291"
     xmlns:xlink="http://www.w3.org/1999/xlink" width="200" height="200">
    <path d="M515.749711 951.768727c-3.420789 0-6.841578-0.920982-9.86766-2.631376L146.436079 741.653347c-6.052165-3.552358-9.86766-9.999229-9.867661-17.103944V309.581395c0-7.104715 3.815495-13.551587 9.867661-17.103944L505.882051 84.993447a19.603752 19.603752 0 0 1 19.73532 0l359.445972 207.484004c6.052165 3.552358 9.86766 9.999229 9.86766 17.103944v414.968008c0 7.104715-3.815495 13.551587-9.86766 17.103944L525.617371 949.137351c-3.157651 1.710394-6.57844 2.631376-9.86766 2.631376zM176.039059 713.102917L515.749711 909.140434l339.710651-196.037517V320.896312L515.749711 124.858795l-339.710652 196.037517V713.102917z"
          fill="#13227a" p-id="9292"></path>
    <path d="M515.749711 526.012078c-3.28922 0-6.57844-0.789413-9.472954-2.368239L146.830785 326.816909l18.945908-34.602596 349.973018 191.564179 349.973018-191.564179 18.945908 34.602596-359.577541 196.695361c-2.894514 1.710394-6.183734 2.499807-9.341385 2.499808z"
          fill="#13227a" p-id="9293"></path>
    <path d="M496.01439 506.276757h39.470641v425.756649h-39.470641zM240.284106 489.935912l18.945908-34.62891 162.158551 88.743159-18.945908 34.628909z"
          fill="#13227a" p-id="9294"></path>
</svg>
