<?xml version="1.0" standalone="no"?>
<!DOCTYPE svg PUBLIC "-//W3C//DTD SVG 1.1//EN" "http://www.w3.org/Graphics/SVG/1.1/DTD/svg11.dtd">
<svg t="1764320228780" class="icon" viewBox="0 0 1024 1024" version="1.1" xmlns="http://www.w3.org/2000/svg" p-id="6326"
     xmlns:xlink="http://www.w3.org/1999/xlink" width="200" height="200">
    <path d="M512 64a448 448 0 1 0 0 896A448 448 0 0 0 512 64z" fill="#2BA244" p-id="6327"></path>
    <path d="M776.96 473.92A163.84 163.84 0 0 1 684.8 542.72c-1.472 0-1.472 0-2.944 1.536-5.888 1.408-11.776 2.944-19.072 2.944-27.776 0-42.432-19.072-35.2-41.024 5.952-16.128 22.016-30.784 41.024-36.608 30.848-11.776 51.328-36.608 51.328-65.92 0-39.488-38.08-71.68-84.992-71.68-46.848 0-84.928 32.192-84.928 71.68v218.176c0 52.608-30.72 98.048-76.032 124.416a167.04 167.04 0 0 1-84.928 21.952c-89.28 0-161.088-65.856-161.088-146.368 0-26.304 7.296-49.792 20.48-71.744a163.84 163.84 0 0 1 92.16-68.864c7.36-1.408 13.184-2.88 20.48-2.88 27.904 0 42.496 19.072 35.2 40.96-5.888 16.128-20.48 29.248-38.08 36.608a11.072 11.072 0 0 0-5.76 2.88c-27.904 11.776-46.976 35.2-46.976 64.512 0 39.488 38.08 71.68 84.928 71.68 46.912 0 84.928-32.192 84.928-71.68V405.12c0-52.8 30.784-98.112 76.16-124.48 25.792-14.72 55.104-22.4 84.864-22.016 89.344 0 161.088 65.92 161.088 146.432a130.112 130.112 0 0 1-20.48 68.864v-0.064z"
          fill="#FFFFFF" p-id="6328"></path>
</svg>
