<?xml version="1.0" standalone="no"?><!DOCTYPE svg PUBLIC "-//W3C//DTD SVG 1.1//EN" "http://www.w3.org/Graphics/SVG/1.1/DTD/svg11.dtd"><svg t="1767685985795" class="icon" viewBox="0 0 1024 1024" version="1.1" xmlns="http://www.w3.org/2000/svg" p-id="1976" xmlns:xlink="http://www.w3.org/1999/xlink" width="200" height="200"><path d="M530.078 610.234c-49.763 97.385-104.64 199.048-151.859 295.596-0.434 0.434-22.974 0-22.974-0.434-71.868-168.013-147.146-334.723-219.045-503.17-17.426-40.832-75.713-107.181-115.679-106.747 0-4.682-0.433-15.316-0.433-21.704H268.06v21.27c-29.36 1.705-80.828 20.4-66.349 52.304 33.608 76.146 158.65 367.928 192.258 441.935 22.974-45.514 88.455-167.144 115.274-218.61-21.27-43.406-89.757-205.032-111.46-244.997-14.882-27.222-55.281-29.795-85.48-30.197v-21.27l218.178 0.403v19.998c-29.764 0.868-58.257 11.905-45.08 39.996 28.927 61.233 46.786 104.205 73.605 160.354 8.495-16.588 53.14-106.345 73.573-154.402 13.611-31.47-5.952-43.808-59.125-45.08 0.434-5.55 0-15.75 0.434-20.867 68.053-0.403 170.12-0.403 188.413-0.837v20.835c-34.446 1.27-70.163 19.563-88.89 48.49l-90.594 188.01c9.766 24.68 96.982 218.611 105.91 239.88L876.303 338.42c-13.177-35.283-55.715-42.941-72.302-43.375v-21.27l195.637 1.705 0.434 0.837-0.434 18.727c-42.94 1.27-68.892 24.245-85.479 61.667-38.29 88.487-158.246 367.494-237.772 549.118h-20.835L530.078 610.234z" fill="#2c2c2c" p-id="1977"></path></svg>